<svg width="20" height="18" viewBox="0 0 20 18" fill="none" xmlns="http://www.w3.org/2000/svg">
  <path d="M10.0011 2.15158C12.1543 0.21833 15.4818 0.282497 17.5563 2.36058C19.6298 4.43958 19.7013 7.75058 17.7726 9.91025L9.99925 17.6946L2.22775 9.91025C0.299085 7.75058 0.371502 4.43408 2.44409 2.36058C4.52034 0.285247 7.84142 0.21558 10.0011 2.15158ZM16.2583 3.65583C14.8833 2.279 12.6649 2.22308 11.2258 3.51558L10.002 4.61375L8.77734 3.5165C7.33359 2.22216 5.11984 2.279 3.74117 3.65766C2.37534 5.0235 2.30659 7.20975 3.56517 8.65441L10.0002 15.0995L16.4352 8.65533C17.6947 7.20975 17.6259 5.02625 16.2583 3.65583Z" fill="#1074EB" />
</svg>