<svg width="23" height="23" viewBox="0 0 23 23" fill="none" xmlns="http://www.w3.org/2000/svg">
  <g clip-path="url(#clip0_7701_483)">
    <path d="M3.83325 21.0833C3.83325 19.05 4.64099 17.1 6.07877 15.6622C7.51655 14.2244 9.46659 13.4167 11.4999 13.4167C13.5332 13.4167 15.4833 14.2244 16.9211 15.6622C18.3589 17.1 19.1666 19.05 19.1666 21.0833H17.2499C17.2499 19.5583 16.6441 18.0958 15.5658 17.0175C14.4874 15.9391 13.0249 15.3333 11.4999 15.3333C9.97492 15.3333 8.51239 15.9391 7.43405 17.0175C6.35572 18.0958 5.74992 19.5583 5.74992 21.0833H3.83325ZM11.4999 12.4583C8.32304 12.4583 5.74992 9.8852 5.74992 6.70833C5.74992 3.53145 8.32304 0.958328 11.4999 0.958328C14.6768 0.958328 17.2499 3.53145 17.2499 6.70833C17.2499 9.8852 14.6768 12.4583 11.4999 12.4583ZM11.4999 10.5417C13.6178 10.5417 15.3333 8.82624 15.3333 6.70833C15.3333 4.59041 13.6178 2.87499 11.4999 2.87499C9.382 2.87499 7.66659 4.59041 7.66659 6.70833C7.66659 8.82624 9.382 10.5417 11.4999 10.5417Z" fill="white" />
  </g>
  <defs>
    <clipPath id="clip0_7701_483">
      <rect width="23" height="23" fill="white" />
    </clipPath>
  </defs>
</svg>