<svg width="229" height="27" viewBox="0 0 229 27" fill="none" xmlns="http://www.w3.org/2000/svg">
<g clip-path="url(#clip0_7716_1017)">
<path d="M15.5 2L18.3064 10.6373H27.3882L20.0409 15.9754L22.8473 24.6127L15.5 19.2746L8.15268 24.6127L10.9591 15.9754L3.61179 10.6373H12.6936L15.5 2Z" fill="#FFC700"/>
<path d="M64.5 2L67.3064 10.6373H76.3882L69.0409 15.9754L71.8473 24.6127L64.5 19.2746L57.1527 24.6127L59.9591 15.9754L52.6118 10.6373H61.6936L64.5 2Z" fill="#FFC700"/>
<path d="M113.5 2L116.306 10.6373H125.388L118.041 15.9754L120.847 24.6127L113.5 19.2746L106.153 24.6127L108.959 15.9754L101.612 10.6373H110.694L113.5 2Z" fill="#FFC700"/>
<path d="M163.5 2L166.306 10.6373H175.388L168.041 15.9754L170.847 24.6127L163.5 19.2746L156.153 24.6127L158.959 15.9754L151.612 10.6373H160.694L163.5 2Z" fill="#FFC700"/>
<path d="M213.5 2L216.306 10.6373H225.388L218.041 15.9754L220.847 24.6127L213.5 19.2746L206.153 24.6127L208.959 15.9754L201.612 10.6373H210.694L213.5 2Z" fill="#9C9C9C"/>
</g>
<defs>
<clipPath id="clip0_7716_1017">
<rect width="229" height="27" fill="white"/>
</clipPath>
</defs>
</svg>
